<svg id="Layer_1" data-name="Layer 1" xmlns="http://www.w3.org/2000/svg" viewBox="0 0 346.39 100.67"><defs><style>.cls-1{fill:#fff;}.cls-2{fill:#ebf3f5;}</style></defs><title>serviceo-logo-White</title><path class="cls-1" d="M47.52,12.69A35.5,35.5,0,1,0,83,48.19,35.5,35.5,0,0,0,47.52,12.69Zm18.61,47a14.94,14.94,0,0,1-1.49,6,13.34,13.34,0,0,1-4,4.42,19.09,19.09,0,0,1-5.72,2.69,23.82,23.82,0,0,1-6.66.94,20.27,20.27,0,0,1-6.79-1.16c-.84-.2-8-2.08-13.87-9.94l-.44-.59,6.43-6.31.72.77a64,64,0,0,0,8.53,7.72,13.53,13.53,0,0,0,13.32.09A1.8,1.8,0,0,1,58,62.89a1.7,1.7,0,1,1,0,3.38A2,2,0,0,1,57,66c-7.79,4.28-15.17-.24-15.25-.29l0,0a61.53,61.53,0,0,1-8.14-7.24l-3.87,3.8c5.57,7.08,12.26,8.63,12.33,8.64l.13,0a18.22,18.22,0,0,0,6.14,1,21.5,21.5,0,0,0,6.07-.85,17,17,0,0,0,5.12-2.4,11.7,11.7,0,0,0,3.46-3.82,10.49,10.49,0,0,0,1.27-5.18,10.71,10.71,0,0,0-1.33-5.59,12.21,12.21,0,0,0-3.47-3.72,21,21,0,0,0-4.91-2.49c-1.87-.66-3.77-1.29-5.64-1.86-.87-.23-1.86-.51-2.92-.82a20.85,20.85,0,0,1-3.09-1.17,9.74,9.74,0,0,1-2.53-1.7l-.07-.06-.05-.07a4,4,0,0,1,.64-5.46l.25-.2.29-.23c1-.88,6.16-2.06,10.31.61a4.84,4.84,0,0,1,1.93,2.33A1.73,1.73,0,0,1,55,40.91a1.86,1.86,0,0,1-3.7,0,1.56,1.56,0,0,1,.45-1.09,3.07,3.07,0,0,0-1.19-1.41,9.07,9.07,0,0,0-7.84-.79l-.36.3-.2.17a2.26,2.26,0,0,0-.38,3.09,7.84,7.84,0,0,0,2,1.3,18.1,18.1,0,0,0,2.77,1.05c1,.31,2,.58,2.92.82,1.93.59,3.85,1.23,5.76,1.9A22.73,22.73,0,0,1,60.56,49a11.55,11.55,0,0,1,4,4.28A12.57,12.57,0,0,1,66.13,59.71ZM61.67,40.88,61,40.09a64.55,64.55,0,0,0-8.24-7.81A12.57,12.57,0,0,0,40.26,32a1.77,1.77,0,0,1-1.75,1.35,1.71,1.71,0,1,1,0-3.42,1.84,1.84,0,0,1,1.09.35c7.34-3.86,14.15.51,14.22.56l0,0a60.49,60.49,0,0,1,7.87,7.33l3.74-3.85c-5.41-7.21-11.85-8.74-11.91-8.75l-.13,0a16.86,16.86,0,0,0-5.93-1.07,20.12,20.12,0,0,0-5.86.86,16.41,16.41,0,0,0-4.94,2.44,11.45,11.45,0,0,0-3.35,3.87,11.06,11.06,0,0,0-1.23,5.25,11.26,11.26,0,0,0,1.28,5.66,12.3,12.3,0,0,0,3.36,3.77,19.65,19.65,0,0,0,4.74,2.52c1.81.68,3.65,1.31,5.45,1.89.85.24,1.81.52,2.82.83a20.11,20.11,0,0,1,3,1.18,9.52,9.52,0,0,1,2.45,1.73l.06.06.05.07a4.14,4.14,0,0,1-.62,5.53l-.23.2-.28.24a7.4,7.4,0,0,1-4.27,1.05,10.13,10.13,0,0,1-5.69-1.67,4.81,4.81,0,0,1-1.63-1.82,1.72,1.72,0,0,1-1.22-1.62,1.79,1.79,0,0,1,3.57,0,1.67,1.67,0,0,1-.46,1.15,3.2,3.2,0,0,0,.82.82,8.42,8.42,0,0,0,7.57.79c.1-.09.22-.2.35-.3l.2-.17a2.39,2.39,0,0,0,.36-3.14,7.86,7.86,0,0,0-1.91-1.32,18.56,18.56,0,0,0-2.67-1.06l-2.82-.83c-1.86-.6-3.72-1.24-5.56-1.92a21.92,21.92,0,0,1-5.21-2.77,14.07,14.07,0,0,1-3.86-4.33,13,13,0,0,1-1.52-6.54,12.78,12.78,0,0,1,1.44-6.08,13.41,13.41,0,0,1,3.87-4.47,18.2,18.2,0,0,1,5.53-2.73,22,22,0,0,1,6.43-.95,19,19,0,0,1,6.56,1.17c.82.2,7.74,2.11,13.4,10.08l.42.59Z" transform="translate(-10.8 -11.66)"/><path class="cls-1" d="M26,18.55l-.87.64c.16-.06-.05.12-.08.15s.29-.24,1.16-.9Z" transform="translate(-10.8 -11.66)"/><path class="cls-1" d="M25.08,19.34Z" transform="translate(-10.8 -11.66)"/><path class="cls-1" d="M26.12,18.44c-.19.12-.41.3-.09.11S26.32,18.32,26.12,18.44Z" transform="translate(-10.8 -11.66)"/><path class="cls-1" d="M22.09,21.87l.16-.17.35-.36.52-.52c-.27.16-1.26,1-.92.67C21.14,22.57,21.42,22.4,22.09,21.87Z" transform="translate(-10.8 -11.66)"/><path class="cls-1" d="M21.24,23l.51-.56A2.25,2.25,0,0,0,21.24,23Z" transform="translate(-10.8 -11.66)"/><path class="cls-1" d="M22.25,21.88c0,.15.14-.12.61-.62l-.57.57-.54.59C21.93,22.31,22,22.35,22.25,21.88Z" transform="translate(-10.8 -11.66)"/><path class="cls-1" d="M17.27,27.54a17.06,17.06,0,0,1-1.07,1.33c0,.1.39-.34.51-.4s.13-.24.27-.47Z" transform="translate(-10.8 -11.66)"/><path class="cls-1" d="M16.71,28.47l-.39.72-.27.48-.11.23C16.7,28.67,16.82,28.43,16.71,28.47Z" transform="translate(-10.8 -11.66)"/><path class="cls-1" d="M13.48,33.94l.13-.45-.08.25c0,.15-.11.34-.16.55l-.21.8.2-.7S13.41,34.16,13.48,33.94Z" transform="translate(-10.8 -11.66)"/><path class="cls-1" d="M11.75,39.15,12,38.3c.09-.69-.43.86-.29.14A12.61,12.61,0,0,0,11.43,40c-.07.48-.14.93-.17,1.37a11.46,11.46,0,0,1,.28-1.42C11.61,39.69,11.67,39.42,11.75,39.15Z" transform="translate(-10.8 -11.66)"/><path class="cls-1" d="M11.13,42.8c0-.45.09-.93.13-1.44C11.2,41.84,11.15,42.32,11.13,42.8Z" transform="translate(-10.8 -11.66)"/><path class="cls-1" d="M13.94,33.4l.4-.52.28-.57A3.74,3.74,0,0,0,13.94,33.4Z" transform="translate(-10.8 -11.66)"/><path class="cls-1" d="M14.35,32.87h0l-.57,1.26Z" transform="translate(-10.8 -11.66)"/><path class="cls-1" d="M14.62,32.31a.27.27,0,0,0,.07-.14Z" transform="translate(-10.8 -11.66)"/><path class="cls-1" d="M12.08,39.49c0-.15,0-.58-.24.45,0,.37-.12.74-.19,1.15l-.21,1.28.3-1.45Z" transform="translate(-10.8 -11.66)"/><path class="cls-1" d="M12.9,36.44l-.05.16C12.9,36.51,12.93,36.43,12.9,36.44Z" transform="translate(-10.8 -11.66)"/><path class="cls-1" d="M11.08,51.35l0-.14,0,0Z" transform="translate(-10.8 -11.66)"/><path class="cls-1" d="M12.15,39.33a9.16,9.16,0,0,0,.37-1.55c-.13.54-.29,1.1-.44,1.71C12.09,39.55,12.1,39.57,12.15,39.33Z" transform="translate(-10.8 -11.66)"/><path class="cls-1" d="M10.92,45.32c.06-.38.12-.81.21-1.27A5.39,5.39,0,0,0,10.92,45.32Z" transform="translate(-10.8 -11.66)"/><path class="cls-1" d="M12.73,36.82l0-.11C12.65,36.93,12.68,36.91,12.73,36.82Z" transform="translate(-10.8 -11.66)"/><path class="cls-1" d="M12.73,36.82a9.47,9.47,0,0,0-.21,1c.11-.43.24-.83.33-1.18A2.18,2.18,0,0,1,12.73,36.82Z" transform="translate(-10.8 -11.66)"/><path class="cls-1" d="M11,49.46l0-1.18,0-.53v-.46c-.06.79-.1,1.36-.19,2.41a4.6,4.6,0,0,0,.27,1.48l0-.54C11,50.32,11,49.89,11,49.46Z" transform="translate(-10.8 -11.66)"/><path class="cls-1" d="M11.5,45.39c.06-1,.1-1.37.09-1.62a5.75,5.75,0,0,1,0-1c-.39,3.26,0-1-.37,1.39.07-.64.11-1.23.21-1.77-.13.58-.2,1.15-.31,1.68l0-.07v0h0c0-.14.06-.19,0,0s0,.05,0,.07a.46.46,0,0,1,0,.16c-.15.94-.06.14,0-.16,0,0,0,0,0,0h0l-.05.52c0,.3,0,.72-.07,1.13s0,.83,0,1.14v.52c0-.7.08-1.58.22-3.12C11.28,44.72,11.26,46.39,11.5,45.39Z" transform="translate(-10.8 -11.66)"/><path class="cls-1" d="M11.05,51.87l0-.19-.2-.35.06.24a5.18,5.18,0,0,0,.13.54l.22.78-.11-.61Z" transform="translate(-10.8 -11.66)"/><path class="cls-1" d="M11.57,55.35v-.13l-.17-.1s.06.23.14.46l.14.45-.06-.4Z" transform="translate(-10.8 -11.66)"/><path class="cls-1" d="M17.56,32.13l-.33.7C17.39,32.5,17.49,32.29,17.56,32.13Z" transform="translate(-10.8 -11.66)"/><path class="cls-1" d="M20.54,27.41l0-.15C20.45,27.49,20.41,27.6,20.54,27.41Z" transform="translate(-10.8 -11.66)"/><path class="cls-1" d="M60.28,16.07l-.67-.32,1.33.66Z" transform="translate(-10.8 -11.66)"/><path class="cls-1" d="M16.68,62.23a4,4,0,0,0-.42-.83s0,.11-.09.08l.25.38Z" transform="translate(-10.8 -11.66)"/><path class="cls-1" d="M34.57,82.19a1.13,1.13,0,0,0-.35-.08c.46.23.89.37,1.28.53a11,11,0,0,0,1.09.38c-.58-.2-1.07-.46-1.48-.63Z" transform="translate(-10.8 -11.66)"/><path class="cls-1" d="M36.59,83c.43.16.89.32,1.37.47a12.45,12.45,0,0,0,1.48.28l-.51-.16c-.37-.08-.74-.14-1.12-.24S37,83.16,36.59,83Z" transform="translate(-10.8 -11.66)"/><path class="cls-1" d="M17,68.51c-.44-.62-.08-.09,0,0Z" transform="translate(-10.8 -11.66)"/><path class="cls-1" d="M15.63,65c.1.13.18.22.22.22A.65.65,0,0,1,15.63,65Z" transform="translate(-10.8 -11.66)"/><path class="cls-1" d="M16.42,67.51c.14.25.29.54.48.84C16.82,68.22,16.69,68,16.42,67.51Z" transform="translate(-10.8 -11.66)"/><path class="cls-1" d="M16.44,67.68l-.34-.58C16,67,16.06,67.12,16.44,67.68Z" transform="translate(-10.8 -11.66)"/><path class="cls-1" d="M17,68.51l.61.87c-.25-.36-.47-.7-.69-1C17,68.48,17,68.54,17,68.51Z" transform="translate(-10.8 -11.66)"/><path class="cls-1" d="M58.54,81.48l.15,0C59.37,81.15,59.07,81.26,58.54,81.48Z" transform="translate(-10.8 -11.66)"/><path class="cls-1" d="M81.79,47.48v0Z" transform="translate(-10.8 -11.66)"/><path class="cls-1" d="M82,47l.19-.44-.72-1.68a9,9,0,0,1,.26,1.38,5.78,5.78,0,0,1,0,1.18l.07-.13A2.2,2.2,0,0,0,82,47Z" transform="translate(-10.8 -11.66)"/><path class="cls-1" d="M22.34,71.13a2.71,2.71,0,0,0,.22.23Z" transform="translate(-10.8 -11.66)"/><path class="cls-1" d="M18.76,30l-.15.25Z" transform="translate(-10.8 -11.66)"/><path class="cls-1" d="M61.07,16.38c-.12-.09-.15-.13-.17-.18C60.7,16.15,60.68,16.18,61.07,16.38Z" transform="translate(-10.8 -11.66)"/><path class="cls-1" d="M16.17,61.48l-.09-.15,0,.08Z" transform="translate(-10.8 -11.66)"/><path class="cls-1" d="M56.65,81.6c.5-.11.77-.16,1-.19C57.62,81.35,57.4,81.41,56.65,81.6Z" transform="translate(-10.8 -11.66)"/><path class="cls-1" d="M13.32,61.72l-.06-.16A1.16,1.16,0,0,1,13.32,61.72Z" transform="translate(-10.8 -11.66)"/><path class="cls-1" d="M13.32,61.72l0,.08a4.4,4.4,0,0,0,.23.52l.35.75a9.45,9.45,0,0,1-.53-1.39S13.43,62,13.32,61.72Z" transform="translate(-10.8 -11.66)"/><path class="cls-1" d="M12.72,58.41c.11.4.35,1,.56,1.52a1.47,1.47,0,0,0-.14-.75l-.22-.67-.24-.78.05.19C12.59,57.79,12.61,58,12.72,58.41Z" transform="translate(-10.8 -11.66)"/><path class="cls-1" d="M12.34,56.45c-.1-.11.06.43.26,1L12.46,57Z" transform="translate(-10.8 -11.66)"/><path class="cls-1" d="M18,70c-.26-.18.35.51.77,1,.22.22.41.37.4.33s-.2-.26-.66-.85S18.18,70.31,18,70Z" transform="translate(-10.8 -11.66)"/><polygon class="cls-1" points="2.66 47.25 2.61 47.69 2.95 48.24 2.66 47.25"/><path class="cls-1" d="M15.9,65.05c-.28-.51-.51-1-.69-1.28C15.36,64.05,15.65,64.66,15.9,65.05Z" transform="translate(-10.8 -11.66)"/><path class="cls-1" d="M77.38,65.32c.58-1.25.94-1.87.44-1.42-.56,1-.58,1.13-.59,1.25s0,.21-.56,1.07C76.47,66.72,77.59,64.82,77.38,65.32Z" transform="translate(-10.8 -11.66)"/><path class="cls-1" d="M77.38,65.32c-.1.2-.2.41-.3.64C77.26,65.6,77.34,65.43,77.38,65.32Z" transform="translate(-10.8 -11.66)"/><path class="cls-1" d="M29.2,19.57l.51-.24.07-.11a5.08,5.08,0,0,0-1.08.61l.15-.09Z" transform="translate(-10.8 -11.66)"/><polygon class="cls-1" points="6.14 22.21 6.28 21.9 5.82 22.39 6.14 22.21"/><path class="cls-1" d="M13.85,48.23v-.52c0,.18,0,.36,0,.52v.45c0,.28,0,.52,0,.71,0,.37,0,.54.11.44,0-.33,0-.69,0-1.06C13.86,48.59,13.85,48.41,13.85,48.23Z" transform="translate(-10.8 -11.66)"/><path class="cls-1" d="M80.15,31.16l-.06.24a5.46,5.46,0,0,1,.41.89C80.36,31.71,80.26,31,80.15,31.16Z" transform="translate(-10.8 -11.66)"/><path class="cls-1" d="M34,14.16c-.21.13-.29.2-.27.23C33.91,14.26,34,14.18,34,14.16Z" transform="translate(-10.8 -11.66)"/><path class="cls-1" d="M25.18,73.83l.08.09S25.24,73.88,25.18,73.83Z" transform="translate(-10.8 -11.66)"/><path class="cls-2" d="M84.22,47.54l0-.73c0-.24,0-.48,0-.71s0-.45-.05-.65,0-.39,0-.55l-.1,0-.09,0c0-.22,0-.44-.06-.67s-.07-.44-.1-.67l-.06-.35-.06-.36c0-.13,0-.25-.08-.38s-.07-.26-.1-.4h0c-.09-.54-.18-1.07-.29-1.61s-.24-1.07-.38-1.61c0-.21,0-.41-.09-.62a4.84,4.84,0,0,0-.14-.61c-.07-.22-.15-.44-.23-.66L82,36.29c-.08-.22-.18-.43-.27-.64s-.2-.41-.28-.62-.1-.25-.14-.37-.09-.25-.13-.37v-.08l0-.14,0-.11a.19.19,0,0,0,0-.07.24.24,0,0,1,0-.08h0a.8.8,0,0,0-.08-.16s0-.09-.07-.13a2.84,2.84,0,0,1-.14-.32l-.09-.29a.08.08,0,0,1,0,0l0,0,0-.06,0-.09a2.68,2.68,0,0,0-.07-.27c0-.09,0-.18-.08-.28a1.83,1.83,0,0,0,.06.25l.06.22c-.07-.15-.16-.32-.26-.51l-.35-.6,0-.13,0-.12,0,0,0-.05c-.07-.22-.13-.29-.17-.28s-.07.13-.07.27l-.2-.28c-.06-.08-.13-.15-.19-.22a1.23,1.23,0,0,0-.3-.75,1.8,1.8,0,0,1-.36-.85,1.83,1.83,0,0,1-.34-.39l-.48-.66c-.15-.18-.3-.36-.44-.51a2.09,2.09,0,0,0-.37-.33l0-.08L77,27.14c-.11-.18-.22-.35-.34-.51a4.11,4.11,0,0,0-.38-.45l0-.05,0-.05,0-.15,0-.15-.15-.11-.31-.24-.14-.1-.12-.08L75.35,25l-.18-.2c-.1-.21-.16-.35-.13-.39s.15,0,.39.18L75,24.26,74.73,24l-.22-.19-.18-.17c-.11-.1-.21-.2-.36-.32s-.34-.28-.63-.49l.08,0,.07,0a6.75,6.75,0,0,0-.68-.55,1.87,1.87,0,0,1-.51-.52,2.8,2.8,0,0,0-.36-.44c-.16-.17-.35-.37-.57-.58s-.48-.44-.76-.67l-.89-.74c-.63-.49-1.32-1-2-1.47s-1.35-.95-1.95-1.36c.07.16,0,.19-.05.14a3,3,0,0,1-.41-.29c-.17-.13-.36-.26-.52-.36s-.29-.13-.36-.07-.15-.19-.19-.25,0-.09.22,0l-.89-.43-.71-.37a3.79,3.79,0,0,0-.66-.29,3.16,3.16,0,0,0-.72-.17c-.06-.08,0-.08.12-.08s.17,0,.12-.05l-.3-.07a1,1,0,0,1-.29-.14c-.06-.06,0-.06.1,0l.36.09-.47-.18-.38-.11-.31,0h-.23a.63.63,0,0,0-.3.1,1,1,0,0,0-.18.17,3.35,3.35,0,0,0-.45-.24,1.66,1.66,0,0,0-.38-.15,1.69,1.69,0,0,0-.38-.07h-.4c-.11-.08-.27-.18-.28-.23s.11,0,.56.07l-.27-.09-.41-.14-.24-.08L57.2,13l-.27-.07-.27-.07a8.5,8.5,0,0,0-1-.22c-.26,0-.44,0-.47,0a1.75,1.75,0,0,0-.42-.11,3,3,0,0,0-.43,0l-.69-.15-.51-.08-.49-.08-.7-.08.16,0,.15,0a1.17,1.17,0,0,1-.36.08l-.4,0c.06,0,.08-.05.08-.07s0-.05,0-.05c-.25,0-.42,0-.53,0s-.15,0-.16.05l-.26,0-.28,0h0v0l-.64-.1-.42,0H48.5l-.41,0-.65-.07,0,.07,0,.06h-.16l.18,0v0h0c-.05.1-.19.13-.39.13a6.1,6.1,0,0,1-.76-.07c-.3,0-.63-.06-1-.07a4.31,4.31,0,0,0-1,.06l.22,0,.23,0a1.84,1.84,0,0,1-.58,0,6.42,6.42,0,0,1-.7-.12l-.7-.14a2.18,2.18,0,0,0-.6,0c-.08,0,0,0,.08-.06l.34-.09c-.89,0-.94.09-.93.19s.09.21-.55.34c-.13,0-.07-.14-.08-.2s-.11-.11-.55,0a1.94,1.94,0,0,0-.59.14l-.95.32a9.69,9.69,0,0,1-1.07.38A6.36,6.36,0,0,1,37,13a.9.9,0,0,1,.32.05s0,.11-.31.23c-.44.15-1.07.27-1.67.42a3.71,3.71,0,0,0-1.51.66l-.13,0-.05,0-.6.31c-.23.12-.48.25-.71.39l-.64.4a2.12,2.12,0,0,0-.41.31.75.75,0,0,0-.41,0,4,4,0,0,0-.55.24c-.19.1-.4.22-.62.36a6.5,6.5,0,0,0-.63.44l-.6.43-.51.35a1.57,1.57,0,0,1-.38.2c-.1,0-.18,0-.22,0l-.28.2c-.17.11-.39.27-.61.44l-.59.46-.28.21v-.08l-.32.23-.27.21-.11.08-.12.08-.56.44-.72.6.59-.43a2.16,2.16,0,0,1,.35-.22h0l-.13.14-.11.13-.11.11-.14.14.1-.09.09-.08-.12.17-.11.16c-.13.1-.16.1-.16.06s0-.09,0-.11l-.95.8a6,6,0,0,0-.62.61l-.34.4-.36.48-.18.21-.16.18-.1.13-.08.1h-.14c-.12.19-.66.71-1.29,1.39a12.8,12.8,0,0,0-1.83,2.46v-.07a1.16,1.16,0,0,1,.06-.16c-.26.47-.59,1-.92,1.46s-.68,1-1,1.47c0,0,0,0,0-.06A1.2,1.2,0,0,1,16,29.9l-.09.2-.23.46c-.16.26-.3.52-.42.76A4.39,4.39,0,0,0,15,32l0,.07,0,.06v.1l0,.1,0,0,0,0a1.22,1.22,0,0,0,0,.26.47.47,0,0,0,0,.21,2.17,2.17,0,0,0-.08.22c-.05.14-.1.31-.15.5l-.14.49-.07.22c.39-.87.43-.78.42-.55s-.06.58.14.24a4.37,4.37,0,0,1-.24.55,5,5,0,0,1-.28.46c-.07.12-.13.19-.15.17s0-.11.06-.33l.05-.06,0-.06c-.11-.23-.35.32-.58.91s-.45,1.22-.54,1.16a2.58,2.58,0,0,0-.08.26,2.76,2.76,0,0,0-.08.27.27.27,0,0,0,0-.11.17.17,0,0,1,0-.09l0,.11-.09.3q-.06.18-.12.42c0,.15-.08.32-.12.48l-.13.48-.1.43a1.36,1.36,0,0,0,0,.17.79.79,0,0,0,0,.13l0,.08v0l.06-.15a.49.49,0,0,1,0-.11s0-.08,0-.12c-.12.48-.24,1-.34,1.45s-.21,1-.31,1.45c-.17.9-.3,1.81-.39,2.71s-.14,1.81-.16,2.7l0-.07.1-.14.09-.14a.17.17,0,0,0,0-.06v1.23c0,.17-.09.28-.13.24a1.5,1.5,0,0,1-.08-.68,2.07,2.07,0,0,0,0,.92,1.47,1.47,0,0,0,.19.58v.27c0-.07-.07-.11-.11-.12s-.07,0-.11.06c0-.14-.06-.28-.08-.36s0-.09,0,0l0,.22,0,.22a2.32,2.32,0,0,0-.21.62c-.06.27-.11.59-.15.93a.12.12,0,0,1,.05,0,.59.59,0,0,1,.06.2c0,.1.06.26.1.5s.1.54.18,1c0-.3-.06-1.23-.06-1.92s0-1.11.15-.41c0,.28.05.51.07.71s0,.37,0,.52,0,.26,0,.37,0,.19,0,.26,0,.28,0,.43,0,.33,0,.6c0-.12,0-.16.05-.15s0,.08.08.18,0,.09,0,.14a.84.84,0,0,1,.05.17L12,54v0l.06.22a2.17,2.17,0,0,1,.07.24c.07.26.15.53.22.74a2.8,2.8,0,0,0,.21.49c.05.22.09.43.14.63s.1.39.14.58V57l0,.08,0,0v0l0,.13a.56.56,0,0,1,0,.12q.13.51.3,1c.1.31.2.6.28.87l.23.67a3.41,3.41,0,0,1,.13.41l.14.26c0,.08.08.17.13.26V61a2.17,2.17,0,0,1,.1.21c0,.09.08.19.12.31l0,.1,0,.1.07.16.07.15,0,.13.05.13.21.5.22.55.13.29.12.3.15.31.15.32c.05.12.12.25.18.38l.19.39L16,65.2a1,1,0,0,1-.09-.15l.4.74.36.65.05.07,0,.08c.23.4.48.81.74,1.21s.53.79.81,1.17c-.2-.23-.45-.55-.59-.7s-.16-.16.1.27c-.51-.66-1.06-1.37-1.6-2.18a18.28,18.28,0,0,1-1.52-2.84v-.46a5.78,5.78,0,0,0,.34.87A9,9,0,0,0,15.62,65a2.59,2.59,0,0,1-.21-.38c-.08-.15-.15-.32-.23-.51s-.17-.38-.25-.58-.17-.42-.25-.64l-.24-.63-.25-.6a5.27,5.27,0,0,0-.23-.53,2.62,2.62,0,0,0-.25-.41l.07.25.16.55c0,.1.05.2.08.3l.08.25.06.18,0,.07c-.38-.75-.8-1.61-1.19-2.53a17.45,17.45,0,0,1-.94-3,2.57,2.57,0,0,0,.1.8,6.37,6.37,0,0,1,.2,1.19c0-.33.07-.18.21.21s.35,1,.56,1.6l.32.83c.1.25.19.46.26.61s.12.21.13.18,0-.15-.06-.41a10.82,10.82,0,0,0,.68,2.06c.29.67.64,1.38,1,2.33,0,0,0-.22,0-.19a10.41,10.41,0,0,1,.62,1l.13.14.14.16,0,.06,0,.05,0-.05,0,0a.12.12,0,0,0,0,0l-.06-.07-.25-.51a1.7,1.7,0,0,1-.12-.32l.26.32.33.45.36.52c.13.19.26.38.41.56l.41.56.39.52.36.43.29.33c.3.43.22.35.09.24s-.28-.28-.14,0l.15.16.34.36.35.34.16.16a4.6,4.6,0,0,0,.58,1c.2.31.2.38-.66-.52l.22.27c.14.16.32.37.52.57l.52.57.24.25c.43.5,1,1.07,1.53,1.6a13.4,13.4,0,0,0,1.57,1.31,9.76,9.76,0,0,0,1.32,1c.36.22.52.3.1.08l.13.09.33.22.22.15.24.17.27.16.28.18.55.33.48.29.35.19.14.08v0A24.54,24.54,0,0,0,31,80.71c.81.37,1.65.72,2.5,1.05s1.74.65,2.64,1l2.78.89.43.08.44.09.47.07.5.08.53.09.57.09.63.09.69.1.18.09.18.1c.38,0,.85.06,1.35.1s1,.09,1.55.1l.37,0,.36,0h.66l.52,0,.34,0a5.38,5.38,0,0,0,.79.07l1.09,0,.63,0,.66-.08.35,0,.35,0,.36-.07.36-.06c.49-.08,1-.18,1.45-.29l1.41-.35,1.27-.36c.4-.12.76-.22,1.07-.33l0-.1,0-.11a.16.16,0,0,0,.09,0l.09,0,.17,0,.17-.06c.52-.18,1-.37,1.56-.59s1-.46,1.59-.73a.84.84,0,0,1-.13.12l-.31.17-.88.44c-.22.11-.32.16-.06.06L61,82l.47-.19.25-.1.22-.09.15-.07.05,0-.05,0-.1,0-.11,0,0,0c.52-.3.79-.48,1.18-.7s.88-.49,1.84-1c.27-.14.45-.23.58-.28a.66.66,0,0,1,.25-.08l0,0h0l0,0h.11a.55.55,0,0,0,.22-.09h0l.12-.06.22-.13.34-.21.37-.24.84-.53h0l0,0,0,0,0,0,0,0,.9-.63.4-.28-.31.15-.32.15.14-.13.13-.14-.26.21-.3.2-.12.06-.11.06.56-.44.51-.4-.14.15-.14.16.18-.18a1.54,1.54,0,0,0,.17-.19,4.19,4.19,0,0,0,.42-.34c.08-.07.09-.1,0-.07l.37-.27.38-.29.49-.37.52-.43c.25-.19.49-.41.73-.63l.74-.69q.38-.36.75-.75l.73-.77A36.94,36.94,0,0,0,77,69.32c.66-.91,1.13-1.62,1.32-1.89s.19-.38.29-.56l.3-.57s0,0,.1-.11a2.74,2.74,0,0,0,.15-.38l.13-.24.12-.24a1.63,1.63,0,0,0,.11-.17l.11-.16c.13-.19.23-.35.29-.46s.06-.17,0-.16l0,0,0,0,.06-.11L80,64.2a8.17,8.17,0,0,0,.56-.93,7.5,7.5,0,0,0,.4-.94,3.49,3.49,0,0,0,.24-.76c0-.2.06-.29,0,0l.09-.26.19-.56,0-.14,0-.14c.07-.16.16-.36.25-.59s.2-.49.3-.78l.3-.93.3-.95c.09-.31.18-.61.27-.88a6,6,0,0,1,.27-.71c-.07.17-.1.22-.11.16s0-.21,0-.43v-.06a2.33,2.33,0,0,0,.08-.36,2.43,2.43,0,0,0,0-.38c0-.16.06-.33.08-.5s0-.35.07-.53l.06-.53c0-.17,0-.34,0-.49l.06-.07.07-.07c0-.18,0-.41.08-.65s.07-.51.11-.76.06-.49.07-.68a.89.89,0,0,0,0-.43,1.21,1.21,0,0,0,.13-.38,3.79,3.79,0,0,0,.09-.54l0-.3c0-.11,0-.22,0-.33V47.9C84.22,47.78,84.22,47.66,84.22,47.54Zm-58-26.21c-.19.18-.46.47-.74.73a5.56,5.56,0,0,1-.7.6,2,2,0,0,1,.56-.68C25.54,21.79,25.83,21.6,26.19,21.33ZM25.05,74.06,25,74l-.07-.09.17.16a1.84,1.84,0,0,0,.14.14l0,0Zm5.55,1-.54-.38-.58-.4-.21-.14-.2-.14-.12-.1-.12-.1-.2-.17-.19-.16-.12-.1-.12-.09L28,73a.5.5,0,0,1-.1-.19c-.22-.18-.28-.21-.3-.18s0,.1,0,.12h0l-.17-.14-.17-.15,0,0,0,0h-.09l-.29-.24-.26-.22a.88.88,0,0,1-.1-.19c0-.06,0-.09,0-.11l.2.16.22.17a4.62,4.62,0,0,0-.44-.46L25.92,71l-.46-.39-.25-.25.08.09.19.21.18.22.09.09c-.35-.3-.7-.63-1.05-1s-.68-.72-1-1.1l.23.2.33.32-.07-.07-.07-.07-.35-.37-.4-.43-.51-.58-.38-.45-.08-.1-.08-.1c-.06-.13-.26-.47-.41-.75s-.25-.48-.11-.33c-.23-.37-.51-.78-.8-1.21s-.6-.89-.91-1.38c-.15-.24-.3-.49-.44-.75l-.44-.78c-.13-.27-.26-.54-.38-.81s-.23-.54-.33-.81a2.62,2.62,0,0,1-.14-.26,5.68,5.68,0,0,1-.24-.52,29.25,29.25,0,0,1-.92-3.08c-.26-1.05-.5-2.16-.8-3.43l0-.75,0-.74c-.06-.5-.1-.63-.13-.59a2.38,2.38,0,0,0-.08.42c0,.17-.05.29-.1.17a8.2,8.2,0,0,1-.2-1.36c-.09-1.2,0-1.43,0-1.46s.16.13.18-.29-.06-.65-.09-1,0-.83-.05-1.31.06-1,.12-1.5a10.18,10.18,0,0,1,.32-1.59c0,.18,0,.35-.07.52s-.05.32-.08.48l-.06.48c0,.16,0,.32-.05.49l.05-.26.11-.57.14-.56.07-.26,0,.38,0,.35v.65l0,.53v.39c0,.21,0,.31,0,.26a4.32,4.32,0,0,0,.17-.63c-.05,0-.09-.16-.1-.36a6.86,6.86,0,0,1,0-.77c0-.31.09-.66.15-1s.13-.78.2-1.18l.14-.59.14-.57q.06-.28.12-.54a3.19,3.19,0,0,1,.12-.49,7,7,0,0,0,.16-.76c0-.19,0-.33,0-.37l.07-.16.15-.36.16-.34.08-.16c-.06.15-.09.23-.12.32a3.43,3.43,0,0,1-.1.33,5.24,5.24,0,0,0,.62-1.86,7.93,7.93,0,0,1,.83-2.31c.25-.42.46-.77.59-.94s.15-.16,0,.14l.14-.31.32-.67.36-.66.16-.3c.14-.22.22-.32.24-.32s0,.1-.11.26l.06-.1.06-.11.28-.45q.15-.25.33-.51l.65-.94.29-.42h0v0c.12-.21.32-.54.54-.87l.57-.9c.16-.14.22-.2.23-.19s0,.06-.1.13-.12.16-.16.23-.06.1,0,.06l0-.06.12-.17.19-.23.21-.26.4-.5.18-.22c.15-.12.2-.13.18-.07a2.23,2.23,0,0,1-.24.37l-.23.3-.29.34-.15.18-.16.18-.15.19-.15.18.46-.35a3.45,3.45,0,0,0,.34-.3,2.52,2.52,0,0,0,.27-.3l.27-.34c.1-.13.2-.27.33-.42a4.91,4.91,0,0,1,.46-.5l.31-.3.36-.34.2-.18.22-.19a2.23,2.23,0,0,1,.24-.19l.27-.2-.05,0-.15.13-.2.19c-.07.07-.15.14-.22.22l-.41.43-.19.19a6.45,6.45,0,0,0,.73-.51c.25-.19.5-.4.79-.61l.44-.34.46-.37c.17-.13.35-.25.53-.37l.59-.37L29,23c-.31.18-.67.39-1,.57a2,2,0,0,1-.59.3c-.07,0,0-.14.38-.48a4.39,4.39,0,0,0,.36-.28l.43-.33.35-.27.39-.32.09,0,.11-.05a.07.07,0,0,1,0,0s0,0,0-.05l.06-.05.05-.05s.1,0,.2,0l.44-.26.63-.4.77-.5,0,.11v.12a9.59,9.59,0,0,0,1-.74,8.45,8.45,0,0,1,.68-.51A6.45,6.45,0,0,1,35,19.11a4,4,0,0,1,.7-.05c.58-.19.77-.27.76-.3a1.75,1.75,0,0,0-.39,0c-.19,0-.37,0-.32,0a4.3,4.3,0,0,1,1-.41c1-.25,1.86-.47,2.78-.67s1.9-.38,3.15-.55c.74,0,.68,0,.5.08s-.48.09-.22.1l.21,0,.44-.08.45-.08.2,0c.16,0,.22,0,.23,0s0,0-.06.05c.55,0,.57-.1.67-.15a2.93,2.93,0,0,1,1.16-.14.91.91,0,0,1,.3-.05,4.44,4.44,0,0,1,.5,0l.67.06.8.08a18.18,18.18,0,0,0,1.82.05,15.43,15.43,0,0,0,1.75-.15c.26,0,.2.06.09.1s-.26.08-.18.12A15.62,15.62,0,0,1,53.64,17c.4,0,.68,0,1,0l.41,0,.46.06.58.09.78.15.11,0,.29.11h0l0,0h.05l.23.1.24.1.66.29.29.13c-.33-.16-.47-.25-.47-.3s.13-.05.36,0l.75.27.9.39a.86.86,0,0,0-.27,0c-.06,0-.09,0-.07.08a2.08,2.08,0,0,1,.35.12l.49.19-.21,0s-.05,0,0,0a1,1,0,0,0,.26.11l.52.17.22.25.22.24h.18l.48.27c.28.17.66.4,1,.65l1,.69.46.32a8.21,8.21,0,0,1,.83.44l.8.48.83.49a8.75,8.75,0,0,1,.83.57l.19.14.18.14q.34.3.69.63c.24.22.48.45.73.7L69.9,25l-.08-.18.08.06L70,25l.39.39.26.3.23.28.22.28c.15.11.22.14.22.12s-.05-.1-.14-.21l0,0h0l.25.28.26.29c-.23-.17-.27-.12-.27,0s0,.26-.06.31a2.13,2.13,0,0,0-.25-.39q-.16-.2-.36-.39l-.42-.43-.47-.45-.25-.24a3,3,0,0,0-.27-.23l-.28-.23-.29-.23L68.21,24l-.58-.52c.4.37.54.53.55.59s-.11,0-.23-.09l.46.36,1,.8.94.87.42.4s0,.06,0,.13a3,3,0,0,0,.24.31l.35.46.41.56c-.05-.2,0-.17.23,0a10.72,10.72,0,0,1,.79.85l.46.62.48.66.45.61c.14.2.27.38.37.54s0,0-.09,0a1.12,1.12,0,0,1-.21-.22l-.41-.53c-.17-.23-.39-.53-.65-.91a7.11,7.11,0,0,0,.71,1.09c.23.3.45.54.65.8l.32.39c.1.13.21.27.32.43a5.47,5.47,0,0,1,.31.5,3.07,3.07,0,0,1,.29.63c-.1-.2-.18-.36-.25-.48a1,1,0,0,0-.21-.27,13.65,13.65,0,0,1,1,1.89c.29.64.46,1.11.28.85a.32.32,0,0,1,0-.06l-.07-.14L76.45,35l0-.06a5.46,5.46,0,0,1,.24.54c.07.2.15.4.24.61l.26.66.28.68.24.72c.07.25.15.49.23.73s.17.49.25.73a6.44,6.44,0,0,1,.2.72l.19.69.17.66.08.3.09.3.06.28,0,.26c.06.25.11.47.16.65a2.4,2.4,0,0,0,.14.43.19.19,0,0,0,0,.08s0,0,0,0h0v0h0s-.12-.06-.23-.17a1.6,1.6,0,0,1-.26-.33l.07.22.21.58.06.19.07.2.06.21.06.23.13.48.13.49,0,.19,0,.19v.07h0v.09c0,.37,0,.74,0,1.11s0,.73,0,1.09c-.12.11-.26.2-.37.08a2.55,2.55,0,0,1-.25-1.29q0,.27,0,.57c0,.21,0,.43,0,.68a2.54,2.54,0,0,0,0,.39v.91l0,.53a2,2,0,0,1,.25-.69c.1-.15.19-.16.17.17s-.17.76-.22,1-.08.4-.12.59,0,.18,0,.29a3.6,3.6,0,0,1-.08.37L79,53l-.19.7c.08-.35.19-.31.25,0a3.83,3.83,0,0,1,0,1.34c0-.09-.11-.09-.2-.11s-.18-.08-.16-.29v.12c0,.08,0,.19,0,.33l0,.46-.05.53-.06.53c0,.17-.05.32-.07.46l0,.18,0,.14c0-.26,0-.27-.17-.14a3,3,0,0,0-.4.64c0-.06,0,.05,0,.27s-.19.54-.31.89l-.1.27-.1.28-.1.26-.11.26-.18.46c-.06.14-.1.26-.13.35l.26-.55.27-.54c-.16.37-.28.7-.39,1l-.29.79c-.09.23-.15.45-.21.66s-.11.4-.18.6l-.19.59c-.07.2-.15.42-.24.65s-.23.49-.37.77-.33.59-.55.93a.82.82,0,0,0,.07-.3c0-.1,0-.18-.08-.21s-.13,0-.27.13A3.83,3.83,0,0,0,74,66a6.57,6.57,0,0,1-.24.69c-.11.3-.25.65-.43,1.06l-.2.23c-.06.07-.12.15-.19.22l-.2.25-.2.25-.2.23-.19.22-.36.43-.34.4-.08.1-.08.09.12-.2.13-.2c.09-.15.19-.3.29-.44s.19-.29.27-.44.34-.58.5-.84.31-.51.43-.75a4.55,4.55,0,0,1-.39.44l-.2.18a2.77,2.77,0,0,0-.24.27l-.59.72c-.13.1-.15.1-.12,0s.12-.19.23-.35l.38-.52.33-.44-.11.14-.31.36-.42.52-.52.57-.51.56c-.17.18-.33.34-.47.47l-.34.34-.12.12s0,0,0,.12a1.74,1.74,0,0,1-.19.27l-.34.38c-.13.14-.26.29-.4.43l-.78.79c-.2.21-.32.35-.26.37l.15-.14.38-.35.52-.51.59-.61c.2-.2.39-.41.57-.61s.33-.39.48-.55l.33-.39.13-.16s0,0,0,.12a1.57,1.57,0,0,1-.13.3q-.12.19-.3.45c-.12.18-.26.38-.43.59s-.35.43-.56.66-.43.47-.67.71l-.13.08-.12.07-.12.15a.37.37,0,0,0-.06.1l-.6.53a8.11,8.11,0,0,1-.65.51c-.33.19-.28,0-.16-.19s.32-.49.27-.5-.23.22-.45.41-.49.41-.77.62l-.78.57a2.67,2.67,0,0,1-.47.29l0,0,.11-.09L65,75l.17-.15.34-.28.15-.13-.5.33-.45.33-.43.32-.43.32a5.15,5.15,0,0,1-.45.32l-.5.3c-.18.1-.36.2-.57.3a4.89,4.89,0,0,1-.65.27,4.49,4.49,0,0,1-.57.23c-.22.08-.44.16-.66.22a5.09,5.09,0,0,0-.55.18c-.15,0-.24.1-.26.15a2.08,2.08,0,0,1,.54,0,1.18,1.18,0,0,1,.41.09,8.57,8.57,0,0,1-1,.43c-.29.12-.51.23-.56.38l.43-.18.94-.4.15-.07.15-.08,0,0,0,0-.64.34c-.22.12-.45.23-.69.34l-.36.17-.37.16v0l0,0-.22.08-.21.09h0v0l-.17.06-.17.06a6.52,6.52,0,0,1-.85.27c-.3.09-.63.16-1,.24a5.18,5.18,0,0,1,.63-.27l.87-.34-.54.14-.53.16.24-.16.16-.13.17-.05.18,0,.8-.28.81-.29.76-.33a6.75,6.75,0,0,0,.66-.34,8.42,8.42,0,0,0-.82.31l-1,.41c-.29.11-.53.2-.65.23s-.12,0,.07-.16a2.64,2.64,0,0,1-.46.27c-.17.08-.35.15-.54.22,0,0,0,0-.05,0a.53.53,0,0,0-.17,0s0,0-.07.06l-.17.1-.36.1-.37.09-.11,0-.1,0s-.06,0-.2,0a7.26,7.26,0,0,0-.74.19h0l-.11,0-.11,0-.75.17A7.59,7.59,0,0,0,53,80l.06-.09.06-.1a6.53,6.53,0,0,1-.72.17c-.3.06-.63.12-1,.16L52,80l.55-.18a10.56,10.56,0,0,1-2.54.27c-.83,0-1.66,0-2.5,0,.88,0,1.37,0,1.63,0s.3,0,.27.07-.11.07-.1.1.12.07.49.08a15.62,15.62,0,0,1-2.31.08,10.23,10.23,0,0,1-1.19-.18A11.56,11.56,0,0,0,45,80l-2.55-.38.28,0,.35.06.36.07.33.06a2.53,2.53,0,0,1,.38.11s-.05,0-.31,0l-.72-.13c-.25,0-.5-.1-.74-.16l-.67-.17a4.32,4.32,0,0,1-.51-.17l-.81-.17L40,79.1l-.08,0-.09,0c-.31-.12-.63-.25-1-.35a4.13,4.13,0,0,0-1.07-.18c-.14-.08-.07-.08,0-.08s.2,0,.13-.06a1.75,1.75,0,0,1-.65-.08,6.75,6.75,0,0,1-.92-.35h.1l-.76-.28-.65-.29a5.67,5.67,0,0,1-.61-.28l-.56-.29-.58-.32c-.19-.11-.4-.22-.6-.35l-.67-.41c-.24-.14-.49-.3-.76-.48l0,.12,0,.12a3.64,3.64,0,0,1-.46-.34c-.11-.08-.17-.15-.28-.23-.33-.06,0,.13.32.34s.68.42.39.4h0a1.83,1.83,0,0,0-.28-.27A4.42,4.42,0,0,0,30.6,75Zm42-51.18.09.09.09.08,0,0,0,0,.11.12.11.13h0l-.19-.21Zm-7.23-5.48-.3-.16a3.81,3.81,0,0,1-.34-.22l-.39-.24-.42-.29.71.4C64.88,18,65.13,18.19,65.38,18.38Zm-8.76,63.5.05,0,.06,0,.09,0,.1,0-.12,0a.23.23,0,0,0-.1,0h-.08Zm26-43.54.06.18c0,.07,0,.15,0,.23l-.06-.21ZM59.15,14l.16.05h.06l.06.05s0,0,0,0L59.11,14l-.32-.12.19.05Zm-12.82-.73h.37l.37,0c.25,0,.51,0,.79-.07l.92-.07c.39.06.35.09.26.12s-.26.06-.12.1l.33-.08.33-.07h.06l.06,0h0s0,0,0,0l0,0h.12l.16.07.12.06-.69,0-.86,0,.31,0,.31,0a3.8,3.8,0,0,1-1.51.12c-.6,0-1.31-.1-2.25-.08H45s0-.06,0-.08a2.12,2.12,0,0,1,.52-.08h.79Zm-2,.15h-.69l.39,0Zm-6.31.85h0ZM21.27,23.37l.05-.06.13-.16c0,.07-.09.14-.14.21l-.14.23h-.11l.11-.11Zm1.21,51.39,0,0h0l.54.54Zm3.38,2.38c-.22-.12-.42-.24-.64-.38l-.68-.48a9.49,9.49,0,0,1-.81-.66c-.3-.26-.63-.58-1-1a2.75,2.75,0,0,1-.42-.62c0-.1,0-.11.1-.1l.56.59.57.55a18.22,18.22,0,0,0,1.52,1.36,15.3,15.3,0,0,0,1.38,1l-.29-.17Zm5.4,3.23c-.61-.3-1-.5-1.19-.62s-.27-.19-.26-.22.08,0,.12,0,.05,0-.06-.05L29.1,79l-.67-.38-.57-.35L27.37,78l-.11,0-.1-.06.34.15a1.5,1.5,0,0,0,.3.1l.41.23.91.51c.16.1.33.18.49.26l.43.22.3.15.12.06a10.49,10.49,0,0,1-1.33-.85c-.11-.11,0-.07.23,0l.12,0,.13,0,.61.34.61.33.53.26.53.25c.17.12.24.19.19.18a2.77,2.77,0,0,1-.62-.26l-.12-.08-.12-.08c-.09,0-.1,0-.06.08a1.65,1.65,0,0,0,.3.22l-.29-.11c-.06,0-.07,0,0,.06l.26.12.59.26.48.25.54.26.43.2.43.2.24.1.23.1c-.45-.13-.94-.28-1.46-.47S31.84,80.62,31.26,80.37Zm35-1.06-.22.1-.22.11h0c.47-.3.64-.39.66-.4S66.38,79.21,66.25,79.31Zm3.65-2.82-.09.08-.1.07-.08,0a.31.31,0,0,0-.1,0h0l.17-.11.2-.13h0Z" transform="translate(-10.8 -11.66)"/><path class="cls-1" d="M128.83,51.15h-32A13.87,13.87,0,0,0,101,59.69,12.4,12.4,0,0,0,109.82,63a14.51,14.51,0,0,0,12.4-6.3l6.61,2.91A19.89,19.89,0,0,1,120.45,67a25.15,25.15,0,0,1-10.79,2.42A21.89,21.89,0,0,1,94.72,64q-6.19-5.46-6.19-14.7a18.93,18.93,0,0,1,6-14.45,19.69,19.69,0,0,1,13.87-5.67,20.46,20.46,0,0,1,13.92,5.53Q128.6,40.21,128.83,51.15Zm-7.71-5.44A13.73,13.73,0,0,0,117,38.45a11.58,11.58,0,0,0-8.31-3.25A10.94,10.94,0,0,0,101,38.14a12.51,12.51,0,0,0-3.89,7.57Z" transform="translate(-10.8 -11.66)"/><path class="cls-1" d="M139.66,61.66V36.86H132V30.2h13.65v8.59a15.12,15.12,0,0,1,3.51-5.56,11.15,11.15,0,0,1,4.74-2.91,26.16,26.16,0,0,1,6.83-.71h2v7.56h-1.5a24,24,0,0,0-8.52,1.14,7.62,7.62,0,0,0-4.17,4.16c-.91,2-1.36,5.61-1.36,10.8v8.39h8.31v6.65H132V61.66Z" transform="translate(-10.8 -11.66)"/><path class="cls-1" d="M183.27,68.94,170.81,36.86h-6.72V30.2h19.17v6.66h-5l8.21,21.61,8.22-21.61h-5.29V30.2h18.62v6.66H202.2L190.05,68.94Z" transform="translate(-10.8 -11.66)"/><path class="cls-1" d="M215.68,61.66V36.86h-5.91V30.2h13.38V61.66h5.91v6.65H209.77V61.66Zm-1.07-44.41a4.45,4.45,0,0,1,1.28-3.15,4.31,4.31,0,0,1,3.25-1.34,4.45,4.45,0,0,1,3.19,1.3,4.29,4.29,0,0,1,1.34,3.19,4.53,4.53,0,0,1-9.06,0Z" transform="translate(-10.8 -11.66)"/><path class="cls-1" d="M268,30.2V44.61h-6.69A9,9,0,0,0,258,38.27a11.15,11.15,0,0,0-14.82,1.36A13.6,13.6,0,0,0,240,49a15.7,15.7,0,0,0,3,9.51,10,10,0,0,0,8.66,4.11q7.86,0,11.41-7.48L269.25,58q-5.12,11.39-17.91,11.38-9,0-14.25-6.18A21.51,21.51,0,0,1,231.9,49a19.16,19.16,0,0,1,5.66-14.23,18.05,18.05,0,0,1,13.07-5.61,15.91,15.91,0,0,1,10.71,3.74V30.2Z" transform="translate(-10.8 -11.66)"/><path class="cls-1" d="M312.67,51.15h-32a13.87,13.87,0,0,0,4.17,8.54A12.38,12.38,0,0,0,293.66,63a14.51,14.51,0,0,0,12.4-6.3l6.61,2.91A19.89,19.89,0,0,1,304.29,67a25.15,25.15,0,0,1-10.79,2.42A21.89,21.89,0,0,1,278.56,64q-6.19-5.46-6.2-14.7a18.94,18.94,0,0,1,6.05-14.45,19.67,19.67,0,0,1,13.87-5.67,20.46,20.46,0,0,1,13.92,5.53Q312.44,40.21,312.67,51.15ZM305,45.71a13.69,13.69,0,0,0-4.18-7.26,11.54,11.54,0,0,0-8.3-3.25,10.94,10.94,0,0,0-7.68,2.94,12.51,12.51,0,0,0-3.89,7.57Z" transform="translate(-10.8 -11.66)"/><path class="cls-1" d="M317.12,49.26A19.3,19.3,0,0,1,323,34.79a19.62,19.62,0,0,1,14.21-5.65,19.88,19.88,0,0,1,14.13,5.57q5.91,5.58,5.91,14.55t-5.89,14.56a19.8,19.8,0,0,1-14.15,5.59,19.56,19.56,0,0,1-20-20.15Zm7.91,0a12.66,12.66,0,0,0,3.53,9.24,12,12,0,0,0,17.24,0,12.78,12.78,0,0,0,3.48-9.2A12.66,12.66,0,0,0,345.74,40a11.54,11.54,0,0,0-8.58-3.63,11.33,11.33,0,0,0-8.7,3.71A13,13,0,0,0,325,49.24Z" transform="translate(-10.8 -11.66)"/><path class="cls-1" d="M34.55,107.77,30.61,96.44h-.07c.1,1.69.16,3.26.16,4.74v6.59h-2V94.21h3.13L35.58,105h.05l3.88-10.79h3.14v13.56H40.51v-6.7c0-.68,0-1.56.05-2.64s.07-1.74.09-2h-.07L36.5,107.77Z" transform="translate(-10.8 -11.66)"/><path class="cls-1" d="M52.22,107.77l-.44-1.43H51.7a4.17,4.17,0,0,1-1.49,1.28,4.8,4.8,0,0,1-1.93.34,3.24,3.24,0,0,1-2.36-.82,3,3,0,0,1-.85-2.31,2.7,2.7,0,0,1,1.18-2.39,6.76,6.76,0,0,1,3.59-.88l1.77-.06V101a2.07,2.07,0,0,0-.46-1.47A1.87,1.87,0,0,0,49.73,99a4.72,4.72,0,0,0-1.51.23,10.71,10.71,0,0,0-1.4.55l-.7-1.56A8.12,8.12,0,0,1,48,97.55a8.41,8.41,0,0,1,1.87-.22,4.45,4.45,0,0,1,3,.85,3.35,3.35,0,0,1,1,2.68v6.91ZM49,106.29a2.68,2.68,0,0,0,1.9-.66,2.43,2.43,0,0,0,.72-1.87v-.89l-1.31.06a4.58,4.58,0,0,0-2.24.51,1.57,1.57,0,0,0-.7,1.41,1.37,1.37,0,0,0,.4,1.06A1.78,1.78,0,0,0,49,106.29Z" transform="translate(-10.8 -11.66)"/><path class="cls-1" d="M65.65,107.77H63.46v-6.31A2.81,2.81,0,0,0,63,99.69a1.86,1.86,0,0,0-1.52-.58,2.41,2.41,0,0,0-2,.81,4.51,4.51,0,0,0-.64,2.74v5.11H56.63V97.51h1.7l.31,1.35h.11a3,3,0,0,1,1.32-1.13,4.36,4.36,0,0,1,1.89-.4q3.69,0,3.69,3.75Z" transform="translate(-10.8 -11.66)"/><path class="cls-1" d="M74.92,107.77l-.44-1.43h-.07a4.28,4.28,0,0,1-1.5,1.28A4.8,4.8,0,0,1,71,108a3.26,3.26,0,0,1-2.36-.82,3.06,3.06,0,0,1-.85-2.31A2.72,2.72,0,0,1,69,102.44a6.79,6.79,0,0,1,3.59-.88l1.77-.06V101a2.07,2.07,0,0,0-.46-1.47A1.87,1.87,0,0,0,72.43,99a4.72,4.72,0,0,0-1.51.23,10.58,10.58,0,0,0-1.39.55l-.71-1.56a8.12,8.12,0,0,1,1.83-.67,8.48,8.48,0,0,1,1.87-.22,4.45,4.45,0,0,1,3,.85,3.36,3.36,0,0,1,1,2.68v6.91Zm-3.25-1.48a2.72,2.72,0,0,0,1.91-.66,2.43,2.43,0,0,0,.72-1.87v-.89l-1.32.06a4.58,4.58,0,0,0-2.24.51,1.57,1.57,0,0,0-.7,1.41,1.34,1.34,0,0,0,.41,1.06A1.75,1.75,0,0,0,71.67,106.29Z" transform="translate(-10.8 -11.66)"/><path class="cls-1" d="M88,97.51v1.2L86.24,99a3.15,3.15,0,0,1,.4.8,3.32,3.32,0,0,1,.16,1,3.08,3.08,0,0,1-1.1,2.5,4.6,4.6,0,0,1-3,.91,4.74,4.74,0,0,1-.89-.08,1.23,1.23,0,0,0-.71,1,.56.56,0,0,0,.33.53,2.79,2.79,0,0,0,1.21.18h1.79a4,4,0,0,1,2.58.72,2.54,2.54,0,0,1,.88,2.09,3,3,0,0,1-1.44,2.69,7.54,7.54,0,0,1-4.15,1,5.67,5.67,0,0,1-3.2-.75A2.39,2.39,0,0,1,78,109.48a2.25,2.25,0,0,1,.6-1.59,3.24,3.24,0,0,1,1.68-.9,1.6,1.6,0,0,1-.72-.6,1.52,1.52,0,0,1,0-1.84,4,4,0,0,1,1-.79,2.82,2.82,0,0,1-1.29-1.11,3.31,3.31,0,0,1-.5-1.82,3.21,3.21,0,0,1,1.06-2.58,4.38,4.38,0,0,1,3-.92,7.31,7.31,0,0,1,.91.06,6.58,6.58,0,0,1,.72.12Zm-8.06,11.86a1.18,1.18,0,0,0,.64,1.08,3.41,3.41,0,0,0,1.78.38,5.44,5.44,0,0,0,2.66-.51,1.53,1.53,0,0,0,.87-1.35,1,1,0,0,0-.48-1,3.84,3.84,0,0,0-1.78-.28H82a2.3,2.3,0,0,0-1.49.44A1.46,1.46,0,0,0,79.93,109.37Zm.94-8.54a2.08,2.08,0,0,0,.49,1.49,1.93,1.93,0,0,0,1.43.52c1.26,0,1.89-.68,1.89-2a2.25,2.25,0,0,0-.47-1.54,1.77,1.77,0,0,0-1.42-.54,1.85,1.85,0,0,0-1.43.53A2.26,2.26,0,0,0,80.87,100.83Z" transform="translate(-10.8 -11.66)"/><path class="cls-1" d="M94.19,108a5,5,0,0,1-3.75-1.4,5.29,5.29,0,0,1-1.35-3.84,5.81,5.81,0,0,1,1.26-4,4.34,4.34,0,0,1,3.44-1.43A4.25,4.25,0,0,1,97,98.56a4.73,4.73,0,0,1,1.18,3.4v1.17H91.34a3.35,3.35,0,0,0,.81,2.3,2.81,2.81,0,0,0,2.14.8,7.57,7.57,0,0,0,1.69-.17,8.41,8.41,0,0,0,1.69-.57v1.77a6.43,6.43,0,0,1-1.62.54A9.48,9.48,0,0,1,94.19,108Zm-.4-9a2.19,2.19,0,0,0-1.67.66,3.12,3.12,0,0,0-.74,1.92H96a2.82,2.82,0,0,0-.61-1.93A2.12,2.12,0,0,0,93.79,99Z" transform="translate(-10.8 -11.66)"/><path class="cls-1" d="M103.92,108a3.57,3.57,0,0,1-3-1.39,7.62,7.62,0,0,1,0-7.84,3.62,3.62,0,0,1,3-1.4A3.52,3.52,0,0,1,107,98.82h.11a14.21,14.21,0,0,1-.16-1.74V93.34h2.19v14.43h-1.7l-.38-1.34H107A3.48,3.48,0,0,1,103.92,108Zm.59-1.76a2.4,2.4,0,0,0,2-.76,4.07,4.07,0,0,0,.63-2.45v-.31a4.64,4.64,0,0,0-.63-2.76,2.36,2.36,0,0,0-2-.81,2,2,0,0,0-1.77.93,4.74,4.74,0,0,0-.62,2.66,4.67,4.67,0,0,0,.6,2.6A2,2,0,0,0,104.51,106.2Z" transform="translate(-10.8 -11.66)"/><path class="cls-1" d="M119.29,107.77h-2.2V94.21h7.65v1.87h-5.45v4.24h5.11v1.89h-5.11Z" transform="translate(-10.8 -11.66)"/><path class="cls-1" d="M126.65,94.79a1.22,1.22,0,0,1,.32-.9,1.48,1.48,0,0,1,1.81,0,1.22,1.22,0,0,1,.32.9,1.19,1.19,0,0,1-.32.88,1.44,1.44,0,0,1-1.81,0A1.19,1.19,0,0,1,126.65,94.79Zm2.31,13h-2.18V97.51H129Z" transform="translate(-10.8 -11.66)"/><path class="cls-1" d="M136.37,108a5,5,0,0,1-3.75-1.4,5.29,5.29,0,0,1-1.35-3.84,5.81,5.81,0,0,1,1.26-4A4.34,4.34,0,0,1,136,97.33a4.25,4.25,0,0,1,3.21,1.23,4.73,4.73,0,0,1,1.18,3.4v1.17h-6.84a3.35,3.35,0,0,0,.81,2.3,2.81,2.81,0,0,0,2.14.8,7.57,7.57,0,0,0,1.69-.17,8.41,8.41,0,0,0,1.69-.57v1.77a6.3,6.3,0,0,1-1.62.54A9.41,9.41,0,0,1,136.37,108Zm-.4-9a2.21,2.21,0,0,0-1.67.66,3.12,3.12,0,0,0-.74,1.92h4.65a2.82,2.82,0,0,0-.61-1.93A2.12,2.12,0,0,0,136,99Z" transform="translate(-10.8 -11.66)"/><path class="cls-1" d="M144.82,107.77h-2.18V93.34h2.18Z" transform="translate(-10.8 -11.66)"/><path class="cls-1" d="M151.21,108a3.6,3.6,0,0,1-3-1.39,7.65,7.65,0,0,1,0-7.84,3.62,3.62,0,0,1,3-1.4,3.53,3.53,0,0,1,3.08,1.49h.11a12.45,12.45,0,0,1-.16-1.74V93.34h2.19v14.43h-1.71l-.38-1.34h-.1A3.48,3.48,0,0,1,151.21,108Zm.59-1.76a2.38,2.38,0,0,0,1.95-.76,3.94,3.94,0,0,0,.63-2.45v-.31a4.64,4.64,0,0,0-.63-2.76,2.34,2.34,0,0,0-2-.81A2,2,0,0,0,150,100a4.73,4.73,0,0,0-.63,2.66,4.58,4.58,0,0,0,.61,2.6A2,2,0,0,0,151.8,106.2Z" transform="translate(-10.8 -11.66)"/><path class="cls-1" d="M172.2,104.09a3.42,3.42,0,0,1-1.31,2.84,5.74,5.74,0,0,1-3.61,1,8.59,8.59,0,0,1-3.77-.72v-2.09a9.84,9.84,0,0,0,2,.68,8.13,8.13,0,0,0,1.94.25,3,3,0,0,0,1.94-.5,1.62,1.62,0,0,0,.63-1.34,1.66,1.66,0,0,0-.58-1.29,8.57,8.57,0,0,0-2.37-1.25,6.42,6.42,0,0,1-2.62-1.72,3.62,3.62,0,0,1-.76-2.32A3.23,3.23,0,0,1,164.88,95a5,5,0,0,1,3.23-1,9.49,9.49,0,0,1,3.88.86l-.7,1.81a8.42,8.42,0,0,0-3.23-.76,2.48,2.48,0,0,0-1.63.46,1.56,1.56,0,0,0-.56,1.24,1.73,1.73,0,0,0,.22.91,2.41,2.41,0,0,0,.74.71,13.35,13.35,0,0,0,1.83.88,9.63,9.63,0,0,1,2.19,1.16,3.29,3.29,0,0,1,1,1.21A3.66,3.66,0,0,1,172.2,104.09Z" transform="translate(-10.8 -11.66)"/><path class="cls-1" d="M178.88,108a5,5,0,0,1-3.74-1.4,5.29,5.29,0,0,1-1.35-3.84,5.81,5.81,0,0,1,1.25-4,4.34,4.34,0,0,1,3.44-1.43,4.22,4.22,0,0,1,3.21,1.23,4.69,4.69,0,0,1,1.18,3.4v1.17H176a3.35,3.35,0,0,0,.81,2.3,2.83,2.83,0,0,0,2.14.8,7.66,7.66,0,0,0,1.7-.17,8.34,8.34,0,0,0,1.68-.57v1.77a6.23,6.23,0,0,1-1.61.54A9.59,9.59,0,0,1,178.88,108Zm-.4-9a2.17,2.17,0,0,0-1.66.66,3.13,3.13,0,0,0-.75,1.92h4.66a2.88,2.88,0,0,0-.62-1.93A2.1,2.1,0,0,0,178.48,99Z" transform="translate(-10.8 -11.66)"/><path class="cls-1" d="M190.36,97.33a5.49,5.49,0,0,1,1.09.09l-.22,2a4.28,4.28,0,0,0-1-.11,2.79,2.79,0,0,0-2.12.85,3.1,3.1,0,0,0-.81,2.22v5.36h-2.18V97.51h1.7l.29,1.81h.11a4.1,4.1,0,0,1,1.34-1.46A3.19,3.19,0,0,1,190.36,97.33Z" transform="translate(-10.8 -11.66)"/><path class="cls-1" d="M195.5,107.77l-3.9-10.26h2.3l2.09,6a12.06,12.06,0,0,1,.65,2.43h.07a16.24,16.24,0,0,1,.65-2.43l2.09-6h2.32l-3.92,10.26Z" transform="translate(-10.8 -11.66)"/><path class="cls-1" d="M203,94.79a1.18,1.18,0,0,1,.32-.9,1.48,1.48,0,0,1,1.81,0,1.22,1.22,0,0,1,.32.9,1.19,1.19,0,0,1-.32.88,1.44,1.44,0,0,1-1.81,0A1.15,1.15,0,0,1,203,94.79Zm2.31,13h-2.18V97.51h2.18Z" transform="translate(-10.8 -11.66)"/><path class="cls-1" d="M212.38,108a4.52,4.52,0,0,1-3.54-1.36,6.88,6.88,0,0,1,.06-7.88,4.68,4.68,0,0,1,3.66-1.39,6.9,6.9,0,0,1,2.92.6l-.66,1.75a6.57,6.57,0,0,0-2.28-.54q-2.65,0-2.66,3.54a4.24,4.24,0,0,0,.66,2.59,2.29,2.29,0,0,0,2,.87,5.59,5.59,0,0,0,2.75-.72v1.9a4.34,4.34,0,0,1-1.25.49A7.41,7.41,0,0,1,212.38,108Z" transform="translate(-10.8 -11.66)"/><path class="cls-1" d="M221.94,108a5,5,0,0,1-3.74-1.4,5.29,5.29,0,0,1-1.35-3.84,5.86,5.86,0,0,1,1.25-4,4.35,4.35,0,0,1,3.44-1.43,4.22,4.22,0,0,1,3.21,1.23,4.69,4.69,0,0,1,1.18,3.4v1.17h-6.84a3.39,3.39,0,0,0,.81,2.3,2.83,2.83,0,0,0,2.14.8,7.66,7.66,0,0,0,1.7-.17,8.34,8.34,0,0,0,1.68-.57v1.77a6.23,6.23,0,0,1-1.61.54A9.59,9.59,0,0,1,221.94,108Zm-.4-9a2.18,2.18,0,0,0-1.66.66,3.13,3.13,0,0,0-.75,1.92h4.66a2.87,2.87,0,0,0-.61-1.93A2.12,2.12,0,0,0,221.54,99Z" transform="translate(-10.8 -11.66)"/><path class="cls-1" d="M240.87,107.77H233.2V94.21h7.67v1.87h-5.46v3.7h5.12v1.85h-5.12v4.26h5.46Z" transform="translate(-10.8 -11.66)"/><path class="cls-1" d="M245.83,102.35v5.42h-2.22V94.21h3.83a6.34,6.34,0,0,1,3.89,1,3.55,3.55,0,0,1,1.26,3,3.72,3.72,0,0,1-2.63,3.61l3.83,6h-2.53L248,102.35Zm0-1.83h1.54a3.46,3.46,0,0,0,2.24-.58,2.06,2.06,0,0,0,.7-1.7,1.86,1.86,0,0,0-.75-1.66,4.17,4.17,0,0,0-2.27-.5h-1.46Z" transform="translate(-10.8 -11.66)"/><path class="cls-1" d="M264.55,98.31a4,4,0,0,1-1.4,3.26,6.14,6.14,0,0,1-4,1.13h-1.41v5.07h-2.21V94.21h3.9a6,6,0,0,1,3.81,1A3.74,3.74,0,0,1,264.55,98.31Zm-6.77,2.52H259a4.3,4.3,0,0,0,2.51-.59,2.18,2.18,0,0,0,.79-1.86,2.08,2.08,0,0,0-.71-1.74,3.56,3.56,0,0,0-2.23-.58h-1.54Z" transform="translate(-10.8 -11.66)"/><path class="cls-1" d="M280.79,98.31a4,4,0,0,1-1.39,3.26,6.16,6.16,0,0,1-4,1.13H274v5.07h-2.22V94.21h3.91a5.9,5.9,0,0,1,3.8,1A3.71,3.71,0,0,1,280.79,98.31ZM274,100.83h1.17a4.28,4.28,0,0,0,2.51-.59,2.18,2.18,0,0,0,.8-1.86,2.08,2.08,0,0,0-.72-1.74,3.53,3.53,0,0,0-2.22-.58H274Z" transform="translate(-10.8 -11.66)"/><path class="cls-1" d="M285.26,107.77h-2.18V93.34h2.18Z" transform="translate(-10.8 -11.66)"/><path class="cls-1" d="M294.6,107.77l-.43-1.43h-.08a4.17,4.17,0,0,1-1.49,1.28,4.8,4.8,0,0,1-1.93.34,3.24,3.24,0,0,1-2.36-.82,3,3,0,0,1-.85-2.31,2.7,2.7,0,0,1,1.18-2.39,6.76,6.76,0,0,1,3.59-.88l1.77-.06V101a2.07,2.07,0,0,0-.46-1.47,1.87,1.87,0,0,0-1.42-.48,4.72,4.72,0,0,0-1.51.23,10.71,10.71,0,0,0-1.4.55l-.7-1.56a7.94,7.94,0,0,1,1.83-.67,8.41,8.41,0,0,1,1.87-.22,4.45,4.45,0,0,1,3,.85,3.35,3.35,0,0,1,1,2.68v6.91Zm-3.24-1.48a2.7,2.7,0,0,0,1.9-.66,2.43,2.43,0,0,0,.72-1.87v-.89l-1.32.06a4.64,4.64,0,0,0-2.24.51,1.59,1.59,0,0,0-.7,1.41,1.37,1.37,0,0,0,.41,1.06A1.76,1.76,0,0,0,291.36,106.29Z" transform="translate(-10.8 -11.66)"/><path class="cls-1" d="M302.84,106.2a5.19,5.19,0,0,0,1.59-.26v1.65a4.64,4.64,0,0,1-.93.26,6.47,6.47,0,0,1-1.18.11q-3.1,0-3.1-3.27V99.16h-1.4v-1l1.5-.8.75-2.17h1.34v2.28h2.92v1.65h-2.92v5.5a1.55,1.55,0,0,0,.39,1.16A1.46,1.46,0,0,0,302.84,106.2Z" transform="translate(-10.8 -11.66)"/><path class="cls-1" d="M311.44,99.16h-2.5v8.61h-2.19V99.16h-1.69v-1l1.69-.67v-.66a3.74,3.74,0,0,1,.85-2.7,3.51,3.51,0,0,1,2.61-.87,6.75,6.75,0,0,1,2.26.38l-.57,1.65a4.83,4.83,0,0,0-1.54-.26,1.23,1.23,0,0,0-1.08.46,2.25,2.25,0,0,0-.34,1.37v.67h2.5Z" transform="translate(-10.8 -11.66)"/><path class="cls-1" d="M322.1,102.62a5.61,5.61,0,0,1-1.29,3.93,4.63,4.63,0,0,1-3.59,1.41,4.92,4.92,0,0,1-2.54-.65,4.23,4.23,0,0,1-1.7-1.87,6.29,6.29,0,0,1-.59-2.82,5.51,5.51,0,0,1,1.28-3.89,4.61,4.61,0,0,1,3.61-1.4,4.5,4.5,0,0,1,3.52,1.43A5.5,5.5,0,0,1,322.1,102.62Zm-7.47,0q0,3.55,2.63,3.56t2.59-3.56q0-3.51-2.61-3.51a2.22,2.22,0,0,0-2,.91A4.6,4.6,0,0,0,314.63,102.62Z" transform="translate(-10.8 -11.66)"/><path class="cls-1" d="M329.62,97.33a5.31,5.31,0,0,1,1.08.09l-.21,2a4.35,4.35,0,0,0-1-.11,2.77,2.77,0,0,0-2.12.85,3.06,3.06,0,0,0-.82,2.22v5.36h-2.18V97.51h1.71l.29,1.81h.11a4.08,4.08,0,0,1,1.33-1.46A3.24,3.24,0,0,1,329.62,97.33Z" transform="translate(-10.8 -11.66)"/><path class="cls-1" d="M341.06,107.77h-2.19v-6.32a2.9,2.9,0,0,0-.44-1.76,1.64,1.64,0,0,0-1.39-.58,2.1,2.1,0,0,0-1.85.82,4.76,4.76,0,0,0-.59,2.73v5.11h-2.18V97.51h1.7l.31,1.35h.11a2.78,2.78,0,0,1,1.24-1.13,3.94,3.94,0,0,1,1.78-.4c1.58,0,2.63.53,3.14,1.61h.15a3.13,3.13,0,0,1,1.28-1.19,4.11,4.11,0,0,1,1.89-.42,3.48,3.48,0,0,1,2.68.92,4.12,4.12,0,0,1,.84,2.83v6.69h-2.18v-6.32a2.83,2.83,0,0,0-.45-1.76,1.66,1.66,0,0,0-1.4-.58,2.15,2.15,0,0,0-1.86.79,4.12,4.12,0,0,0-.59,2.44Z" transform="translate(-10.8 -11.66)"/></svg>